1 26 0 0 0 0 1 0 0 0 -1 -1 0 0 39793.dat
1 0 10 0 0 1 0 0 0 1 0 0 0 1 2780.dat
1 0 0.00001 -20 30 0 0 -1 0 1 0 1 0 0 2780.dat
1 0 0 20 30 0 0 -1 0 1 0 1 0 0 2780.dat
1 0 0 -20 -30 0 0 -1 0 1 0 1 0 0 2780.dat
1 0 -0.00001 20 -30 0 0 -1 0 1 0 1 0 0 2780.dat
1 0 40.00002 0.00001 40 0 0 -1 -1 0 0 0 1 0 60484.dat
1 0 40.00001 0 -39.99999 0 0 -1 -1 0 0 0 1 0 60484.dat
1 0 40.00002 0.00001 50 0 1 0 0 0 -1 -1 0 0 2780.dat
1 0 0.00002 0 50 0 1 0 0 0 -1 -1 0 0 2780.dat
1 0 0.00001 0 -50 0 1 0 0 0 -1 -1 0 0 2780.dat
1 0 40.00001 0.00001 -50 0 1 0 0 0 -1 -1 0 0 2780.dat
1 0 19.99999 -10.00001 19.99995 0 1 0 -1 0 0 0 0 1 2780.dat
1 0 20 -10 -20.00001 0 1 0 -1 0 0 0 0 1 2780.dat
1 15 19 20 0 0 0 -1 1 0 0 0 -1 0 37308.dat
1 71 40 0.00001 -60 0 0 -1 0 -1 0 -1 0 0 55615.dat
1 71 40.00002 0 60 0 0 -1 0 -1 0 -1 0 0 55615.dat
1 15 19 -78 0 0 0 -1 -1 0 0 0 1 0 37316.dat
1 322 60.00003 -20 60.00001 1 0 0 0 0 1 0 -1 0 11954.dat
1 322 60.00003 -20 -59.99999 1 0 0 0 0 -1 0 1 0 11954.dat
1 26 60.00006 -20.00002 -39.99997 1 0 0 0 0 1 0 -1 0 32525.dat
1 26 60 -20.00002 40.00004 1 0 0 0 0 1 0 -1 0 32525.dat
1 0 60.00003 -100 50.00004 0 1 0 0 0 -1 -1 0 0 2780.dat
1 0 60.00003 60.00002 49.99998 0 1 0 0 0 -1 -1 0 0 2780.dat
1 0 60.00006 -100 -49.99998 0 1 0 0 0 -1 -1 0 0 2780.dat
1 0 59.99998 60 -50 0 1 0 0 0 -1 -1 0 0 2780.dat
1 71 20.00002 20.000031 80 0 0 -1 -1 0 0 0 1 0 48989.dat
1 71 20 20.00001 -79.99998 0 0 -1 -1 0 0 0 1 0 48989.dat
1 0 20.00002 30.00003 100 0 0 -1 -1 0 0 0 1 0 2780.dat
1 1 20.00002 20.000031 60 0 1 0 -1 0 0 0 0 1 6558.dat
1 0 20 30.00002 -99.99998 0 0 -1 -1 0 0 0 1 0 2780.dat
1 1 20 20.00001 -59.99999 0 1 0 -1 0 0 0 0 1 6558.dat
1 15 0 60 80 0 0 -1 1 0 0 0 -1 0 54696p01.dat
1 15 0 60 -80 0 0 -1 -1 0 0 0 1 0 54696p01.dat
